Coordinates
version=1
nRows=20
nColumns=30
inDegrees=yes

Units are S.I. units (second, meters, Newtons, ...)
Angles are in degrees.

endheader
time	floatyaw	floatroll	floatpitch	floatx	floaty	floatz	pro_sup_l	deviation_l	flexion_l	cmc_flexion_l	cmc_abduction_l	mp_flexion_l	ip_flexion_l	2mcp_flexion_l	2mcp_abduction_l	2pm_flexion_l	2md_flexion_l	3mcp_flexion_l	3mcp_abduction_l	3pm_flexion_l	3md_flexion_l	4mcp_flexion_l	4mcp_abduction_l	4pm_flexion_l	4md_flexion_l	5mcp_flexion_l	5mcp_abduction_l	5pm_flexion_l	5md_flexion_l
0.005000	-4.367428	-0.612882	99.545687	0.058003	-0.150401	0.070478	66.930043	5.676249	1.030886	17.910749	38.068830	-20.948263	-45.816369	42.097032	4.916766	60.949562	41.104536	46.776556	3.954352	61.329788	40.433421	42.479814	-5.949482	79.105760	56.842487	54.730644	-3.358986	79.213675	42.220953
0.015000	-4.367428	-0.612882	99.545687	0.058213	-0.148984	0.070588	66.140011	5.805989	0.141783	18.050548	38.072520	-21.109961	-46.106853	42.843880	4.955496	60.850548	41.214986	47.310325	3.927796	61.560227	40.670063	43.359340	-5.961864	79.174409	57.258530	55.922804	-3.339053	79.559742	42.349176
0.025000	-4.367428	-0.612882	99.545687	0.058391	-0.146986	0.070717	65.572431	5.988491	-0.765203	18.373037	38.002476	-21.427211	-46.585219	43.597380	4.971574	60.629596	41.296907	47.876954	3.902076	61.714267	40.895952	44.266811	-5.976350	79.117080	57.699717	57.044040	-3.327059	79.772351	42.474072
0.035000	-4.367428	-0.612882	99.545687	0.058548	-0.144630	0.070827	65.211562	6.176755	-1.600605	18.847653	37.822986	-21.877412	-47.198261	44.381964	4.971531	60.267139	41.363976	48.508110	3.871065	61.711751	41.086971	45.217876	-5.995910	78.926442	58.130436	58.145942	-3.308513	79.737588	42.528360
0.045000	-4.367428	-0.612882	99.545687	0.058703	-0.142237	0.070878	65.025319	6.338237	-2.272418	19.410714	37.494354	-22.411079	-47.839359	45.194042	4.968259	59.787379	41.419765	49.198827	3.835517	61.515543	41.214856	46.181712	-6.018678	78.614011	58.489560	59.231408	-3.284909	79.407788	42.472336
0.055000	-4.367428	-0.612882	99.545687	0.058869	-0.140150	0.070834	64.959402	6.464834	-2.724987	19.979882	36.994461	-22.957169	-48.381427	46.003503	4.974919	59.255850	41.456727	49.911292	3.801491	61.153792	41.262397	47.094941	-6.041406	78.230845	58.722389	60.267809	-3.265312	78.831585	42.305565
0.065000	-4.367428	-0.612882	99.545687	0.059044	-0.138622	0.070688	64.946562	6.570065	-2.959512	20.477991	36.337518	-23.440039	-48.723340	46.758691	4.998777	58.760068	41.461877	50.585223	3.776072	60.711006	41.232059	47.884924	-6.061717	77.857051	58.805534	61.202959	-3.257428	78.135284	42.062154
0.075000	-4.367428	-0.612882	99.545687	0.059209	-0.137746	0.070456	64.928303	6.675870	-3.027248	20.856155	35.577598	-23.803723	-48.828947	47.400894	5.038328	58.379052	41.426346	51.157540	3.762937	60.290557	41.144084	48.495527	-6.078581	77.566188	58.755715	61.981650	-3.262602	77.466944	41.792532
0.085000	-4.367428	-0.612882	99.545687	0.059340	-0.137439	0.070180	64.874242	6.797391	-3.003149	21.105721	34.791321	-24.031471	-48.737111	47.886736	5.085058	58.154507	41.352124	51.586011	3.760421	59.969524	41.026075	48.906367	-6.091673	77.390592	58.620373	62.563026	-3.276059	76.936355	41.541022
0.095000	-4.367428	-0.612882	99.545687	0.059417	-0.137505	0.069907	64.784523	6.934227	-2.956758	21.254896	34.045576	-24.150005	-48.536911	48.206902	5.128309	58.078543	41.251116	51.864549	3.762935	59.772338	40.900790	49.137538	-6.100664	77.312530	58.456122	62.935418	-3.290764	76.583855	41.331084
0.105000	-4.367428	-0.612882	99.545687	0.059436	-0.137727	0.069678	64.673813	7.071533	-2.933848	21.353411	33.365769	-24.216764	-48.323548	48.388832	5.160180	58.104459	41.137599	52.021060	3.764314	59.675554	40.778791	49.237925	-6.105099	77.284900	58.306327	63.121478	-3.301750	76.388497	41.164700
0.115000	-4.367428	-0.612882	99.545687	0.059410	-0.137956	0.069511	64.549905	7.188531	-2.952506	21.452763	32.721919	-24.296603	-48.160503	48.481453	5.178007	58.172626	41.020038	52.100049	3.760737	59.634430	40.658714	49.263638	-6.104799	77.263465	58.188613	63.169431	-3.308274	76.300193	41.032442
0.125000	-4.367428	-0.612882	99.545687	0.059358	-0.138135	0.069402	64.403502	7.268992	-3.009154	21.589595	32.042248	-24.437830	-48.065566	48.531942	5.183865	58.235050	40.898281	52.141362	3.751725	59.610536	40.533509	49.257846	-6.100345	77.228094	58.096992	63.134421	-3.313019	76.270851	40.924749
0.135000	-4.367428	-0.612882	99.545687	0.059296	-0.138283	0.069324	64.216165	7.308718	-3.087774	21.777110	31.249517	-24.656541	-48.020921	48.567938	5.182178	58.266841	40.767641	52.166586	3.739267	59.585065	40.398220	49.240933	-6.093233	77.183396	58.014710	63.059892	-3.319434	76.268919	40.836945
0.145000	-4.367428	-0.612882	99.545687	0.059232	-0.138447	0.069248	63.979138	7.317415	-3.168030	22.005732	30.302243	-24.934464	-47.994341	48.592955	5.177052	58.264207	40.626176	52.177879	3.726050	59.556262	40.254662	49.212785	-6.085540	77.145319	57.928206	62.968098	-3.329138	76.277740	40.767247
0.155000	-4.367428	-0.612882	99.545687	0.059164	-0.138652	0.069146	63.707918	7.314885	-3.231288	22.251012	29.219223	-25.230120	-47.957366	48.594058	5.170624	58.236149	40.479508	52.166333	3.713917	59.529375	40.110823	49.162644	-6.079232	77.126871	57.833764	62.862435	-3.340859	76.287363	40.712253
0.165000	-4.367428	-0.612882	99.545687	0.059089	-0.138887	0.069007	63.441295	7.323441	-3.264950	22.484989	28.074304	-25.497730	-47.894091	48.554943	5.162914	58.196560	40.339892	52.122903	3.703226	59.508350	39.976364	49.079905	-6.075444	77.131332	57.735269	62.737198	-3.351267	76.288572	40.664663
0.175000	-4.367428	-0.612882	99.545687	0.059004	-0.139115	0.068834	63.225053	7.359647	-3.264931	22.686529	26.964554	-25.705117	-47.801829	48.466684	5.152876	58.158982	40.220633	52.045456	3.693235	59.493281	39.857728	48.961044	-6.074093	77.153163	57.637804	62.587429	-3.356926	76.272096	40.614763
0.185000	-4.367428	-0.612882	99.545687	0.058911	-0.139297	0.068644	63.090668	7.428673	-3.235525	22.846774	25.969668	-25.842641	-47.687128	48.331595	5.139804	58.133226	40.129820	51.939319	3.683088	59.482144	39.755861	48.811138	-6.074033	77.182649	57.543096	62.413755	-3.356137	76.231302	40.553946
0.195000	-4.367428	-0.612882	99.545687	0.058811	-0.139413	0.068452	63.041480	7.523343	-3.186539	22.968203	25.124212	-25.920426	-47.559650	48.160390	5.124186	58.123291	40.067245	51.813009	3.672658	59.473383	39.667319	48.641039	-6.073661	77.210920	57.449367	62.221844	-3.349658	76.165404	40.477811
